<svg xmlns="http://www.w3.org/2000/svg" width="298" height="28" viewBox="0 0 298 28" fill="none">
<g clip-path="url(#clip0_61_4229)">
<mask id="mask0_61_4229" style="mask-type:luminance" maskUnits="userSpaceOnUse" x="0" y="0" width="298" height="28">
<path d="M298 0H0V28H298V0Z" fill="white"/>
</mask>
<g mask="url(#mask0_61_4229)">
<path d="M20.3224 24.3009H7.91697L6.02759 28H0L14.1227 0L28.2424 28H22.2087L20.3224 24.3009ZM10.3378 19.4849H17.8493L14.0674 12.0462L10.3378 19.4849Z" fill="black"/>
<path d="M48.3556 20.272L40.6937 13.3342V28H34.8228V0L48.3157 12.4631L61.9715 0V28H56.119V13.3342L48.3526 20.272H48.3556Z" fill="black"/>
<path d="M92.2662 6.39644H79.1512V11.5889H91.0067V16.9867H79.1512V22.5929H92.4629V27.9907H73.2803V0.998665H92.2632V6.39644H92.2662Z" fill="black"/>
<path d="M125.747 14.6658C125.747 22.5618 119.922 28 111.123 28H102.411V1.00489H111.378C120.26 0.995553 125.75 6.68889 125.75 14.6658H125.747ZM119.879 14.5009C119.879 9.40178 116.527 6.40266 111.75 6.40266H108.269V22.5991H111.707C116.398 22.5991 119.879 19.6093 119.879 14.5009Z" fill="black"/>
<path d="M132.616 0.995552H149.461V6.39333H143.971V22.5898H149.461V27.9876H132.616V22.5898H138.106V6.39644H132.616V0.995552Z" fill="black"/>
<path d="M175.694 24.3009H163.289L161.402 28H155.35L169.476 0L183.599 28H177.546L175.691 24.3009H175.694ZM165.709 19.4849H173.209L169.436 12.0462L165.709 19.4849Z" fill="black"/>
<path d="M184.155 0.995552H207.62V6.39333H198.821V27.9907H192.957V6.39644H184.155V0.995552Z" fill="black"/>
<path d="M234.185 6.39644H221.07V11.5889H232.928V16.9867H221.07V22.5929H234.382V27.9907H215.193V0.998665H234.173L234.185 6.39644Z" fill="black"/>
<path d="M250.194 15.4964V28H244.326V1.00489H250.194V13.0542L259.493 1.00489H266.575L256.4 14.084L267.506 28H260.507L250.191 15.4964H250.194Z" fill="black"/>
<path d="M290.083 24.3009H277.678L275.791 28H269.754L283.88 0L298 28H291.966L290.083 24.3009ZM280.098 19.4849H287.601L283.828 12.0462L280.098 19.4849Z" fill="black"/>
</g>
</g>
<defs>
<clipPath id="clip0_61_4229">
<rect width="298" height="28" fill="white"/>
</clipPath>
</defs>
</svg>